<?xml version="1.0" encoding="UTF-8"?>
<svg id="Layer_1" data-name="Layer 1" xmlns="http://www.w3.org/2000/svg" viewBox="0 0 1080 1027">
  <defs>
    <style>
      .cls-1 {
        fill: #fff;
      }

      .cls-2 {
        fill: #272424;
      }
    </style>
  </defs>
  <path class="cls-2" d="m1006.99,531c0,3.16-.19,6.31-.56,9.47s-.93,6.3-1.68,9.45c-.75,3.14-1.68,6.28-2.8,9.4s-2.41,6.24-3.9,9.33c-1.48,3.1-3.15,6.18-5,9.24-1.85,3.06-3.88,6.11-6.08,9.13-2.21,3.02-4.6,6.02-7.16,8.99-2.56,2.98-5.3,5.92-8.21,8.84-2.91,2.92-5.99,5.81-9.25,8.66-3.25,2.86-6.67,5.68-10.26,8.46-3.59,2.79-7.34,5.53-11.25,8.24-3.92,2.71-7.98,5.38-12.21,8-4.23,2.62-8.61,5.21-13.14,7.74-4.53,2.54-9.21,5.03-14.04,7.47-4.83,2.44-9.79,4.83-14.91,7.17-5.11,2.34-10.36,4.63-15.74,6.86-5.38,2.23-10.89,4.41-16.53,6.53s-11.4,4.18-17.28,6.19c-5.88,2-11.88,3.95-17.99,5.83-6.11,1.88-12.33,3.7-18.66,5.45-6.33,1.76-12.76,3.44-19.28,5.07-6.53,1.62-13.15,3.18-19.86,4.67-6.71,1.49-13.51,2.91-20.39,4.26-6.88,1.35-13.83,2.63-20.87,3.84-7.03,1.21-14.13,2.34-21.29,3.41-7.16,1.07-14.39,2.05-21.67,2.97-7.28.92-14.61,1.76-22,2.52-7.38.77-14.8,1.46-22.27,2.08-7.46.62-14.96,1.16-22.49,1.62-7.53.47-15.08.85-22.65,1.16-7.57.31-15.16.54-22.76.7-7.6.16-15.21.23-22.81.23s-15.22-.08-22.82-.23c-7.6-.15-15.19-.39-22.76-.7-7.57-.31-15.13-.69-22.65-1.16-7.53-.46-15.02-1-22.48-1.62-7.46-.62-14.89-1.31-22.27-2.08-7.38-.77-14.72-1.61-22-2.52-7.28-.92-14.51-1.91-21.67-2.97-7.16-1.07-14.26-2.2-21.29-3.41s-13.99-2.49-20.86-3.84c-6.88-1.35-13.68-2.77-20.39-4.26-6.71-1.49-13.33-3.04-19.86-4.67-6.53-1.62-12.96-3.31-19.28-5.07-6.33-1.75-12.55-3.57-18.66-5.45s-12.11-3.82-17.99-5.83c-5.88-2-11.64-4.07-17.28-6.19-5.64-2.12-11.15-4.3-16.53-6.53s-10.63-4.52-15.74-6.86c-5.11-2.34-10.08-4.73-14.91-7.17s-9.51-4.93-14.04-7.47c-4.53-2.54-8.91-5.12-13.14-7.74-4.23-2.63-8.3-5.29-12.21-8-3.92-2.71-7.66-5.46-11.25-8.24-3.59-2.78-7.01-5.61-10.26-8.46-3.25-2.86-6.34-5.74-9.25-8.66-2.91-2.92-5.65-5.86-8.21-8.84-2.56-2.97-4.95-5.97-7.16-8.99-2.21-3.02-4.24-6.07-6.09-9.13s-3.51-6.15-5-9.24c-1.48-3.1-2.78-6.21-3.9-9.33s-2.05-6.26-2.79-9.4c-.75-3.14-1.31-6.29-1.68-9.45-.37-3.16-.56-6.31-.56-9.47s.18-6.32.56-9.47c.37-3.16.94-6.3,1.68-9.45.74-3.14,1.67-6.28,2.79-9.4s2.42-6.23,3.9-9.33c1.49-3.1,3.15-6.18,5-9.24s3.88-6.11,6.09-9.13c2.21-3.02,4.59-6.02,7.16-8.99,2.56-2.98,5.3-5.92,8.21-8.84,2.91-2.92,6-5.81,9.25-8.66,3.26-2.86,6.67-5.68,10.26-8.46,3.59-2.79,7.34-5.53,11.25-8.24,3.91-2.71,7.98-5.38,12.21-8,4.23-2.62,8.61-5.21,13.14-7.74,4.53-2.54,9.22-5.03,14.04-7.47s9.8-4.83,14.91-7.17,10.36-4.63,15.74-6.86c5.38-2.23,10.89-4.41,16.53-6.53,5.64-2.12,11.4-4.18,17.28-6.19,5.88-2,11.88-3.95,17.99-5.83s12.33-3.7,18.66-5.45c6.33-1.76,12.75-3.44,19.28-5.07,6.53-1.62,13.14-3.18,19.86-4.67,6.71-1.49,13.5-2.91,20.39-4.26,6.88-1.35,13.83-2.63,20.86-3.84,7.03-1.21,14.13-2.34,21.29-3.41,7.16-1.06,14.39-2.05,21.67-2.97,7.28-.92,14.61-1.76,22-2.53,7.38-.77,14.81-1.46,22.27-2.08,7.46-.62,14.96-1.16,22.48-1.62,7.53-.47,15.08-.85,22.65-1.16,7.57-.31,15.16-.54,22.76-.7,7.6-.16,15.21-.23,22.82-.23s15.21.08,22.81.23c7.6.15,15.19.39,22.76.7,7.57.31,15.13.69,22.65,1.16,7.53.46,15.02,1,22.49,1.62,7.46.62,14.89,1.31,22.27,2.08,7.38.77,14.72,1.61,22,2.53,7.28.92,14.51,1.91,21.67,2.97,7.17,1.07,14.26,2.2,21.29,3.41,7.03,1.21,13.99,2.49,20.87,3.84,6.88,1.35,13.67,2.77,20.39,4.26,6.71,1.49,13.33,3.04,19.86,4.67,6.53,1.62,12.95,3.31,19.28,5.07,6.33,1.75,12.55,3.57,18.66,5.45,6.11,1.88,12.11,3.82,17.99,5.83s11.64,4.07,17.28,6.19c5.64,2.12,11.15,4.3,16.53,6.53,5.38,2.24,10.63,4.52,15.74,6.86,5.11,2.34,10.08,4.73,14.91,7.17,4.83,2.44,9.51,4.93,14.04,7.47,4.53,2.54,8.91,5.12,13.14,7.74,4.23,2.63,8.3,5.29,12.21,8,3.91,2.71,7.66,5.46,11.25,8.24,3.59,2.78,7.01,5.61,10.26,8.46,3.26,2.86,6.34,5.74,9.25,8.66s5.65,5.86,8.21,8.84c2.56,2.97,4.95,5.97,7.16,8.99,2.21,3.02,4.24,6.07,6.08,9.13,1.85,3.06,3.52,6.15,5,9.24,1.49,3.1,2.78,6.21,3.9,9.33s2.05,6.26,2.8,9.4,1.31,6.29,1.68,9.45.56,6.31.56,9.47Z"/>
  <path class="cls-1" d="m200.56,463.88c-.3,4.43-.22,8.79.24,13.07.47,4.28,1.79,8.48,3.96,12.61.62,1.23,1.04,2.45,1.28,3.67.23,1.22.5,2.52.82,3.9.3,1.53.73,2.94,1.26,4.24.54,1.3,1.13,2.57,1.76,3.79,6.51,11.92,15.08,20.71,25.72,26.37,10.63,5.66,22.69,8.48,36.2,8.48,6.67,0,13.23-.54,19.67-1.6,6.44-1.07,12.61-3.44,18.52-7.11,4.96-3.06,9.38-6.3,13.25-9.74,3.88-3.45,6.99-7.84,9.33-13.19.46-.92.93-1.84,1.39-2.76.46-.92,1.01-1.76,1.64-2.52,1.24-1.53,2.09-3.13,2.56-4.81.46-1.69,1.01-3.37,1.63-5.05.77-3.06.73-5.31-.12-6.76-.85-1.46-2.83-2.57-5.93-3.33-2.17-.61-4.27-1.1-6.28-1.48-2.02-.39-4.04-.73-6.06-1.03-1.71-.62-3.49-.93-5.36-.93-2.94-.3-5.04,1.31-6.28,4.83-.94,2.9-1.87,5.65-2.8,8.26-.93,2.6-2.09,4.93-3.49,7-1.4,2.06-3.15,3.97-5.25,5.73-2.09,1.76-4.69,3.32-7.79,4.69-1.71.77-3.53,1.31-5.46,1.62-1.94.3-3.84.68-5.71,1.14-1.55.3-3.03.53-4.43.69-1.39.15-2.86.23-4.41.23-4.82,0-9.32-.91-13.51-2.74-4.19-1.84-7.95-4.29-11.29-7.34-3.34-3.06-6.09-6.65-8.26-10.78-2.17-4.13-3.57-8.48-4.19-13.07-.32-1.23-.55-2.53-.71-3.9-.15-1.38-.31-2.68-.46-3.91-1.87-11.92-.47-23.39,4.19-34.4,3.1-7.48,8.11-13.18,15.02-17.08,6.91-3.9,14.47-5.86,22.7-5.86,6.67,0,12.84,1.34,18.5,4.02,5.67,2.68,9.98,7.23,12.93,13.65.46,1.07.92,2.1,1.39,3.1.46.99,1.01,2.02,1.63,3.09.78,1.53,1.59,2.57,2.45,3.1.85.53,1.9.8,3.15.8,1.86,0,3.75-.19,5.69-.57,1.94-.39,3.77-.73,5.48-1.03,3.88-.62,7.53-1.84,10.94-3.67,2.48-1.38,3.11-3.37,1.87-5.97-4.97-13.45-12.15-23.58-21.54-30.39-9.39-6.8-21.38-10.82-35.97-12.04h-2.79c-8.54,0-16.62.92-24.22,2.76-7.6,1.83-14.58,4.66-20.95,8.48-6.36,3.82-11.95,8.71-16.75,14.68-4.81,5.96-8.61,13.07-11.41,21.32-1.55,4.44-2.6,8.99-3.14,13.65-.54,4.66-.74,9.36-.59,14.11Z"/>
  <path class="cls-1" d="m368.18,484.97c0-7.03.07-14.03.23-20.99.16-6.95.08-13.95-.23-20.99,0-1.22.07-2.4.23-3.55.16-1.15.16-2.33,0-3.55-.31-1.68-.85-3.21-1.63-4.59-.77-1.38-2.09-2.22-3.96-2.52-1.86-.31-3.72-.58-5.58-.81-1.87-.23-3.73-.34-5.58-.34-1.55,0-3.07.08-4.55.24-1.47.15-2.75.5-3.84,1.03-1.09.53-2.02,1.33-2.8,2.4-.77,1.07-1.23,2.53-1.39,4.36-.47,4.89-.59,9.7-.35,14.45.23,4.74.19,9.56-.12,14.45-.32,4.89-.4,9.86-.24,14.9.16,5.05.24,10.02.24,14.91v18c0,6.04.15,12.04.47,18,.15,4.28,2.4,6.57,6.74,6.88,5.12.3,10.17.3,15.14,0,2.32-.16,4.14-.92,5.46-2.29,1.32-1.38,1.82-3.14,1.52-5.28-.16-1.69-.13-3.41.11-5.16.23-1.76.35-3.48.35-5.17.16-5.81.16-11.54,0-17.19-.15-5.65-.23-11.39-.23-17.21Zm-24.91-64.44c.62.15,1.78.3,3.49.46,1.71.15,3.5.27,5.36.34,1.86.07,3.69.07,5.48,0,1.78-.08,3.06-.19,3.84-.34,1.86-.16,3.22-.73,4.08-1.72.85-1,1.43-2.26,1.75-3.79.15-.91.26-2.24.34-4,.08-1.76.12-3.59.12-5.5s-.04-3.72-.12-5.4c-.07-1.68-.11-2.83-.11-3.45-.15-2.14-.66-3.63-1.51-4.47-.85-.84-2.37-1.41-4.55-1.72-2.17-.3-4.38-.49-6.63-.57-2.25-.08-4.46-.04-6.63.12-1.71,0-3.57.5-5.58,1.5-2.02.99-3.18,2.4-3.49,4.23,0,3.21-.04,6.42-.12,9.64-.08,3.21-.04,6.42.12,9.62,0,2.6,1.39,4.28,4.19,5.05Z"/>
  <path class="cls-1" d="m417.54,515.94c-1.87,0-3.69-.27-5.48-.8-1.79-.54-3.53-1.19-5.23-1.96-4.19-1.22-6.28-4.05-6.28-8.48,0-1.68.5-3.13,1.51-4.35,1.01-1.23,2.29-2.22,3.85-2.98,1.55-.77,3.18-1.38,4.88-1.84,1.7-.46,3.26-.69,4.66-.69,3.72-.3,7.37-.87,10.94-1.71,3.57-.85,7.22-1.5,10.94-1.96.46-.15.89-.26,1.28-.33.39-.08.82-.2,1.28-.36,2.8-.15,4.12,1.07,3.97,3.67-.32,2.91-1.33,5.7-3.04,8.38-1.71,2.67-3.8,5-6.28,6.99-2.48,1.99-5.23,3.56-8.26,4.71-3.02,1.15-5.93,1.72-8.72,1.72Zm7.68-90.36c-4.04-.16-8.15.07-12.34.69-4.19.61-8.46,1.68-12.81,3.21-7.45,2.29-13.31,5.92-17.57,10.9-4.27,4.97-7.26,11.12-8.96,18.45-.78,4.13.69,6.65,4.43,7.57,2.64.76,5.31,1.45,8.02,2.07,2.72.61,5.55.76,8.5.45,1.4,0,2.48-.03,3.26-.11.78-.08,1.4-.27,1.86-.57.46-.31.81-.81,1.05-1.5.23-.69.58-1.72,1.05-3.1,1.24-3.52,2.91-6.34,5.01-8.48,2.1-2.14,5.09-3.51,8.96-4.12,2.64-.31,5.2-.5,7.68-.57,2.48-.08,4.97.04,7.45.34,1.24,0,2.52.27,3.84.81,1.32.53,2.6,1.03,3.85,1.48,1.7.76,3.02,2.13,3.96,4.12.93,1.99,1.24,3.82.93,5.5-.15.77-.46,1.31-.93,1.62-.47.3-.98.53-1.52.68-.54.15-1.12.27-1.75.34-.62.08-1.16.27-1.63.57-.31.31-.85.46-1.63.46l-29.79,4.59c-10.4,1.07-19.55,5.5-27.46,13.3-3.27,3.22-5.56,6.85-6.88,10.91-1.32,4.05-1.86,8.14-1.63,12.26.24,4.13,1.16,7.99,2.79,11.59,1.63,3.59,3.77,6.53,6.41,8.82,4.04,3.83,8.97,6.69,14.79,8.6,5.82,1.91,11.44,2.86,16.87,2.86s10.62-.65,16.05-1.95c5.44-1.3,10.41-3.25,14.91-5.85,2.17-1.22,3.57-1.83,4.2-1.83.77,0,1.86.99,3.26,2.98.77,1.07,1.58,1.99,2.44,2.76.86.76,1.91,1.22,3.15,1.37,1.4.15,2.83.27,4.31.34,1.47.08,2.91.12,4.31.12,1.7,0,3.37-.07,5.01-.23,1.63-.16,3.3-.39,5.01-.7,4.97-.91,6.36-3.43,4.19-7.56-1.71-3.68-2.79-7.46-3.26-11.36-.47-3.9-.78-7.84-.93-11.81-.15-5.35-.35-10.62-.58-15.82-.24-5.2-.28-10.41-.12-15.6.15-4.43.03-8.72-.35-12.85-.39-4.13-.89-8.33-1.51-12.61-.63-3.06-1.84-5.81-3.62-8.26-1.78-2.45-3.87-4.55-6.28-6.31-2.41-1.76-5.08-3.25-8.03-4.47-2.94-1.22-5.89-2.14-8.84-2.76-3.11-.46-6.21-.84-9.31-1.14-3.11-.31-6.36-.38-9.77-.23Z"/>
  <path class="cls-1" d="m509.25,487.95c.15-3.98.34-7.91.58-11.81.23-3.9.81-7.84,1.75-11.81.78-3.52,2.41-6.26,4.88-8.25,2.48-1.99,5.13-2.98,7.93-2.98,1.55,0,3.02.3,4.41.91,1.08.3,2.09.61,3.03.91.93.31,1.94.62,3.03.91,1.86.61,3.61.54,5.23-.23,1.63-.77,2.84-1.99,3.62-3.67,1.08-2.6,2.05-5.08,2.91-7.45.85-2.37,1.66-4.85,2.44-7.45.78-2.15.24-3.76-1.63-4.83-2.64-2.14-5.55-3.93-8.73-5.38-3.18-1.46-6.47-2.19-9.89-2.19-2.48,0-5.42.31-8.84.93-3.42.61-6.06,1.52-7.91,2.74-.78.61-1.68,1.03-2.69,1.26-1.01.23-2.05.04-3.14-.57-1.71-.92-3.33-1.53-4.88-1.83-1.55-.31-3.18-.46-4.88-.46s-3.42.08-5.13.24c-1.71.15-3.41.38-5.13.68-2.17.31-3.57.81-4.19,1.5s-1.01,2.1-1.16,4.24c-.16,3.82-.24,7.64-.24,11.47s-.08,7.64-.23,11.47c-.15,7.34-.08,14.68.23,22.02.31,7.34.16,14.67-.46,22.01-.16,2.15-.24,4.37-.24,6.67v22.92c-.15,2.91.46,4.67,1.86,5.28,1.4.61,3.57,1.07,6.53,1.38,2.33.3,4.7.38,7.11.23,2.4-.15,4.77,0,7.09.46,2.64.46,4.59-.07,5.83-1.6,1.24-1.53,1.78-3.67,1.63-6.43-.15-4.43-.23-8.83-.23-13.19s-.16-8.75-.47-13.18v-14.91Z"/>
  <path class="cls-1" d="m584.22,515.94c-1.87,0-3.69-.27-5.48-.8-1.79-.54-3.53-1.19-5.23-1.96-4.19-1.22-6.28-4.05-6.28-8.48,0-1.68.5-3.13,1.51-4.35,1.01-1.23,2.29-2.22,3.85-2.98,1.55-.77,3.18-1.38,4.88-1.84,1.7-.46,3.26-.69,4.66-.69,3.72-.3,7.37-.87,10.94-1.71,3.57-.85,7.22-1.5,10.94-1.96.46-.15.89-.26,1.28-.33.39-.08.82-.2,1.28-.36,2.8-.15,4.12,1.07,3.97,3.67-.32,2.91-1.33,5.7-3.04,8.38-1.71,2.67-3.8,5-6.28,6.99-2.48,1.99-5.23,3.56-8.26,4.71-3.02,1.15-5.93,1.72-8.72,1.72Zm7.68-90.36c-4.04-.16-8.15.07-12.34.69-4.19.61-8.46,1.68-12.81,3.21-7.45,2.29-13.31,5.92-17.57,10.9-4.27,4.97-7.26,11.12-8.96,18.45-.78,4.13.69,6.65,4.43,7.57,2.64.76,5.31,1.45,8.02,2.07,2.72.61,5.55.76,8.5.45,1.4,0,2.48-.03,3.26-.11.78-.08,1.4-.27,1.86-.57.46-.31.81-.81,1.05-1.5.23-.69.58-1.72,1.05-3.1,1.24-3.52,2.91-6.34,5.01-8.48,2.1-2.14,5.09-3.51,8.96-4.12,2.64-.31,5.2-.5,7.68-.57,2.48-.08,4.97.04,7.45.34,1.24,0,2.52.27,3.84.81,1.32.53,2.6,1.03,3.85,1.48,1.7.76,3.02,2.13,3.96,4.12.93,1.99,1.24,3.82.93,5.5-.15.77-.46,1.31-.93,1.62-.47.3-.98.53-1.52.68-.54.15-1.12.27-1.75.34-.62.08-1.16.27-1.63.57-.31.31-.85.46-1.63.46l-29.79,4.59c-10.4,1.07-19.55,5.5-27.46,13.3-3.27,3.22-5.56,6.85-6.88,10.91-1.32,4.05-1.86,8.14-1.63,12.26.24,4.13,1.16,7.99,2.79,11.59,1.63,3.59,3.77,6.53,6.41,8.82,4.04,3.83,8.97,6.69,14.79,8.6,5.82,1.91,11.44,2.86,16.87,2.86s10.62-.65,16.05-1.95c5.44-1.3,10.41-3.25,14.91-5.85,2.17-1.22,3.57-1.83,4.2-1.83.77,0,1.86.99,3.26,2.98.77,1.07,1.58,1.99,2.44,2.76.86.76,1.91,1.22,3.15,1.37,1.4.15,2.83.27,4.31.34,1.47.08,2.91.12,4.31.12,1.7,0,3.37-.07,5.01-.23,1.63-.16,3.3-.39,5.01-.7,4.97-.91,6.36-3.43,4.19-7.56-1.71-3.68-2.79-7.46-3.26-11.36-.47-3.9-.78-7.84-.93-11.81-.15-5.35-.35-10.62-.58-15.82-.24-5.2-.28-10.41-.12-15.6.15-4.43.03-8.72-.35-12.85-.39-4.13-.89-8.33-1.51-12.61-.63-3.06-1.84-5.81-3.62-8.26-1.78-2.45-3.87-4.55-6.28-6.31-2.41-1.76-5.08-3.25-8.03-4.47-2.94-1.22-5.89-2.14-8.84-2.76-3.11-.46-6.21-.84-9.31-1.14-3.11-.31-6.36-.38-9.77-.23Z"/>
  <path class="cls-1" d="m317.2,617.74c.77,2.29,1.08,4.39.93,6.31-.15,1.91-.23,3.86-.23,5.85,0,3.36-1.48,5.73-4.43,7.11-1.24.61-2.41,1.26-3.5,1.95-1.09.69-2.25,1.27-3.49,1.72-8.23,3.37-16.84,5.05-25.84,5.05-5.9,0-11.53-.76-16.89-2.29-5.35-1.53-10.12-3.86-14.32-7-4.19-3.14-7.68-7.03-10.47-11.69-2.79-4.67-4.65-10.06-5.58-16.17-.94-6.88-1.02-13.42-.24-19.61.78-6.19,2.72-12.5,5.83-18.92,3.72-7.34,9.19-12.85,16.4-16.52,7.22-3.67,15.02-5.5,23.4-5.5,2.64,0,5.7.27,9.19.81,3.5.53,6.92,1.41,10.25,2.64,3.34,1.22,6.36,2.78,9.07,4.69,2.72,1.91,4.62,4.24,5.71,7,.63,1.53,1.25,3.02,1.87,4.47.62,1.45,1.32,2.86,2.1,4.24,1.86,4.28,4.96,5.96,9.31,5.05,2.32-.62,4.61-1.23,6.86-1.84,2.25-.61,4.54-1.3,6.86-2.07,2.64-.76,4.31-1.98,5.01-3.66.7-1.69.81-3.9.35-6.66-.31-1.68-.93-3.05-1.86-4.12-.94-1.08-1.63-2.3-2.1-3.67-2.49-6.11-5.82-11.28-10.01-15.48-4.19-4.21-8.96-7.61-14.32-10.21s-11.06-4.47-17.12-5.61c-6.05-1.15-12.25-1.72-18.61-1.72-9.47,0-18.44,1.07-26.9,3.21-8.45,2.14-16.64,5.88-24.56,11.23-2.94,1.84-5.77,4.29-8.49,7.34-2.72,3.06-5.2,6.35-7.45,9.86-2.25,3.52-4.2,7.15-5.83,10.9-1.62,3.75-2.82,7.15-3.59,10.21-2.48,9.62-3.53,19.06-3.15,28.32.39,9.25,2.6,18.47,6.63,27.64,6.67,14.98,17.39,25.99,32.13,33.02,6.51,3.06,12.95,5.39,19.31,6.99,6.37,1.61,13.04,2.41,20.02,2.41,6.37,0,12.11-.34,17.22-1.03,5.12-.68,10.05-1.74,14.79-3.2,4.74-1.46,9.47-3.37,14.2-5.74,4.74-2.37,9.82-5.16,15.25-8.38,4.97-2.75,7.45-7.11,7.45-13.07-.15-5.35-.2-10.77-.12-16.28.08-5.51.12-10.93.12-16.28,0-4.14-.24-8.27-.7-12.4-.31-2.6-1.01-4.28-2.1-5.04-1.09-.77-2.95-1.15-5.58-1.15-9,0-17.92.04-26.77.12-8.85.08-17.77.12-26.78.12-.77,0-1.51.04-2.21.12-.7.07-1.44.11-2.21.11-2.18.3-3.78.8-4.79,1.48-1.01.69-1.66,2.1-1.96,4.24-.32,4.9-.32,9.87,0,14.91.15,3.36,2.01,5.27,5.58,5.73,1.55.31,3.06.46,4.53.46h4.31c4.5.15,9.01.19,13.51.12,4.5-.08,9.16-.12,13.97-.12Z"/>
  <path class="cls-1" d="m378.88,620.95c.15-3.98.34-7.91.58-11.81.23-3.9.81-7.84,1.75-11.81.78-3.52,2.41-6.26,4.88-8.25,2.48-1.99,5.13-2.98,7.93-2.98,1.55,0,3.02.3,4.41.91,1.08.3,2.09.61,3.03.91.93.31,1.94.62,3.03.91,1.86.61,3.61.54,5.23-.23,1.63-.77,2.84-1.99,3.62-3.67,1.08-2.6,2.05-5.08,2.91-7.45.85-2.37,1.66-4.85,2.44-7.45.78-2.15.24-3.76-1.63-4.83-2.64-2.14-5.55-3.93-8.73-5.38-3.18-1.46-6.47-2.19-9.89-2.19-2.48,0-5.42.31-8.84.93-3.42.61-6.06,1.52-7.91,2.74-.78.61-1.68,1.03-2.69,1.26-1.01.23-2.05.04-3.14-.57-1.71-.92-3.33-1.53-4.88-1.83-1.55-.31-3.18-.46-4.88-.46s-3.42.08-5.13.24c-1.71.15-3.41.38-5.13.68-2.17.31-3.57.81-4.19,1.5s-1.01,2.1-1.16,4.24c-.16,3.82-.24,7.64-.24,11.47s-.08,7.64-.23,11.47c-.15,7.34-.08,14.68.23,22.02.31,7.34.16,14.67-.46,22.01-.16,2.15-.24,4.37-.24,6.67v22.92c-.15,2.91.46,4.67,1.86,5.28,1.4.61,3.57,1.07,6.53,1.38,2.33.3,4.7.38,7.11.23,2.4-.15,4.77,0,7.09.46,2.64.46,4.59-.07,5.83-1.6,1.24-1.53,1.78-3.67,1.63-6.43-.15-4.43-.23-8.83-.23-13.19s-.16-8.75-.47-13.18v-14.91Z"/>
  <path class="cls-1" d="m453.85,648.93c-1.87,0-3.69-.27-5.48-.8-1.79-.54-3.53-1.19-5.23-1.96-4.19-1.22-6.28-4.05-6.28-8.48,0-1.68.5-3.13,1.51-4.35,1.01-1.23,2.29-2.22,3.85-2.98,1.55-.77,3.18-1.38,4.88-1.84,1.7-.46,3.26-.69,4.66-.69,3.72-.3,7.37-.87,10.94-1.71,3.57-.85,7.22-1.5,10.94-1.96.46-.15.89-.26,1.28-.33.39-.08.82-.2,1.28-.36,2.8-.15,4.12,1.07,3.97,3.67-.32,2.91-1.33,5.7-3.04,8.38-1.71,2.67-3.8,5-6.28,6.99-2.48,1.99-5.23,3.56-8.26,4.71-3.02,1.15-5.93,1.72-8.72,1.72Zm7.68-90.36c-4.04-.16-8.15.07-12.34.69-4.19.61-8.46,1.68-12.81,3.21-7.45,2.29-13.31,5.92-17.57,10.9-4.27,4.97-7.26,11.12-8.96,18.45-.78,4.13.69,6.65,4.43,7.57,2.64.76,5.31,1.45,8.02,2.07,2.72.61,5.55.76,8.5.45,1.4,0,2.48-.03,3.26-.11.78-.08,1.4-.27,1.86-.57.46-.31.81-.81,1.05-1.5.23-.69.58-1.72,1.05-3.1,1.24-3.52,2.91-6.34,5.01-8.48,2.1-2.14,5.09-3.51,8.96-4.12,2.64-.31,5.2-.5,7.68-.57,2.48-.08,4.97.04,7.45.34,1.24,0,2.52.27,3.84.81,1.32.53,2.6,1.03,3.85,1.48,1.7.76,3.02,2.13,3.96,4.12.93,1.99,1.24,3.82.93,5.5-.15.77-.46,1.31-.93,1.62-.47.3-.98.53-1.52.68-.54.15-1.12.27-1.75.34-.62.08-1.16.27-1.63.57-.31.31-.85.46-1.63.46l-29.79,4.59c-10.4,1.07-19.55,5.5-27.46,13.3-3.27,3.22-5.56,6.85-6.88,10.91-1.32,4.05-1.86,8.14-1.63,12.26.24,4.13,1.16,7.99,2.79,11.59,1.63,3.59,3.77,6.53,6.41,8.82,4.04,3.83,8.97,6.69,14.79,8.6,5.82,1.91,11.44,2.86,16.87,2.86s10.62-.65,16.05-1.95c5.44-1.3,10.41-3.25,14.91-5.85,2.17-1.22,3.57-1.83,4.2-1.83.77,0,1.86.99,3.26,2.98.77,1.07,1.58,1.99,2.44,2.76.86.76,1.91,1.22,3.15,1.37,1.4.15,2.83.27,4.31.34,1.47.08,2.91.12,4.31.12,1.7,0,3.37-.07,5.01-.23,1.63-.16,3.3-.39,5.01-.7,4.97-.91,6.36-3.43,4.19-7.56-1.71-3.68-2.79-7.46-3.26-11.36-.47-3.9-.78-7.84-.93-11.81-.15-5.35-.35-10.62-.58-15.82-.24-5.2-.28-10.41-.12-15.6.15-4.43.03-8.72-.35-12.85-.39-4.13-.89-8.33-1.51-12.61-.63-3.06-1.84-5.81-3.62-8.26-1.78-2.45-3.87-4.55-6.28-6.31-2.41-1.76-5.08-3.25-8.03-4.47-2.94-1.22-5.89-2.14-8.84-2.76-3.11-.46-6.21-.84-9.31-1.14-3.11-.31-6.36-.38-9.77-.23Z"/>
  <path class="cls-1" d="m560.93,624.16c-.94-1.22-1.55-2.21-1.86-2.98l-13.97-35.08-.7-2.76c-.63-2.6-1.49-5.08-2.57-7.45-1.09-2.37-2.02-4.78-2.79-7.23-.94-2.76-2.33-4.67-4.2-5.74-1.86-1.07-4.1-1.68-6.74-1.83-1.87,0-3.77.04-5.71.12-1.94.07-3.92.11-5.93.11-2.8,0-4.86.27-6.18.81-1.32.53-2.17,1.3-2.56,2.29-.38.99-.42,2.13-.11,3.43.31,1.3.77,2.71,1.39,4.24,1.71,4.59,3.45,9.14,5.23,13.65,1.78,4.51,3.69,8.98,5.71,13.42,2.02,4.43,4.04,8.9,6.06,13.42,2.02,4.51,3.88,9.13,5.58,13.87,1.24,3.52,2.56,7,3.96,10.45,1.4,3.44,2.87,6.76,4.43,9.97,1.4,2.91,2.64,5.85,3.73,8.83,1.08,2.98,2.17,6,3.26,9.05,1.4,3.83,4.11,5.74,8.14,5.74,2.18-.15,4.39-.19,6.63-.11,2.25.07,4.47.11,6.65.11,3.56,0,5.89-1.45,6.98-4.36,1.08-2.45,2.21-4.82,3.36-7.11,1.16-2.3,2.14-4.75,2.92-7.34,2.02-6.42,4.46-12.68,7.33-18.8,2.87-6.11,5.39-12.39,7.56-18.81,2.17-6.42,4.62-12.57,7.33-18.45,2.72-5.89,5.4-11.9,8.03-18.02.77-1.68,1.43-3.32,1.96-4.92.54-1.61,1.05-3.25,1.52-4.93.31-1.08.27-2.11-.12-3.1-.39-.99-1.12-1.64-2.21-1.95-1.09-.31-2.14-.61-3.15-.91-1.01-.31-1.97-.46-2.91-.46-1.71-.15-3.37-.19-5.01-.11-1.62.07-3.29.03-5.01-.12-5.58,0-9.46,2.45-11.64,7.33-1.09,3.06-2.33,6.04-3.73,8.95-1.39,2.91-2.55,5.89-3.49,8.95-2.02,5.97-4.31,11.78-6.88,17.43-2.56,5.66-4.92,11.46-7.09,17.42-.47,1.53-1.55,2.53-3.26,2.98Z"/>
  <path class="cls-1" d="m662.9,601c-3.27,0-6.53.04-9.78.12-3.26.07-6.52.03-9.78-.12-1.24,0-2.09-.42-2.56-1.26-.47-.84-.39-1.87.23-3.1,2.18-4.28,5.17-7.41,8.96-9.4,3.8-1.99,7.8-2.98,11.99-2.98s7.88.92,11.52,2.76c3.65,1.83,6.56,4.43,8.73,7.8.31.46.54.96.7,1.5.16.53.39,1.1.7,1.71.31.77.24,1.5-.23,2.19-.47.68-1.09,1.02-1.86,1.02h-9.31c-3.11,0-6.21-.07-9.31-.23Zm-3.73,72.01c4.96.16,9.65-.11,14.08-.8,4.42-.69,8.58-1.65,12.46-2.88,14.59-5.2,24.21-15.21,28.86-30.04,1.55-5.2-.62-8.25-6.51-9.17-1.25-.15-2.46-.23-3.62-.23s-2.36-.15-3.61-.46c-3.72-.92-6.51-1.38-8.37-1.38-2.02,0-3.57.73-4.66,2.19-1.09,1.45-2.8,4.01-5.13,7.68-.47.62-.94,1.2-1.4,1.74-.47.53-.7,1.18-.7,1.94,0,.46-.24.92-.7,1.38-2.64,1.38-5.2,2.68-7.68,3.9-2.48,1.22-5.11,1.83-7.91,1.83-5.74,0-10.87-1.45-15.37-4.35-4.49-2.91-7.75-7.03-9.77-12.38-.32-.62-.59-1.19-.82-1.72-.24-.54-.04-1.04.59-1.5.77-.61,1.47-1.18,2.09-1.71.63-.54,1.48-.5,2.57.11,1.55,1.07,3.1,1.15,4.66.24,1.7-.92,3.45-1.42,5.23-1.5,1.78-.08,3.53-.04,5.23.12,4.66.46,9.27.54,13.85.23,4.58-.31,9.13-.31,13.63,0,3.88.31,7.71.35,11.52.12,3.8-.23,7.64-.34,11.52-.34,3.26,0,5.36-1.68,6.28-5.05.31-.92.54-1.87.7-2.86.16-1,.08-2.03-.23-3.1-.32-.91-.47-1.9-.47-2.97v-3.22c.16-5.2-.62-10.09-2.33-14.68-1.71-4.59-3.95-9.02-6.74-13.3-2.64-3.98-5.74-7.38-9.31-10.21-3.57-2.83-7.61-5-12.11-6.54-3.11-1.07-6.25-2.1-9.43-3.09-3.18-1-6.47-1.5-9.89-1.5-2.79,0-5.35.38-7.68,1.14-.31.16-.69.17-1.16.01-.47-.16-.94-.24-1.4-.24-5.59,0-11.14,1.19-16.65,3.55-5.51,2.37-10.44,5.51-14.79,9.41-4.34,3.9-7.91,8.44-10.71,13.64-2.79,5.2-4.26,10.55-4.41,16.05,0,.3-.07.57-.23.8-.16.23-.24.5-.24.81-.93,6.58-1.28,12.96-1.05,19.16.24,6.19,1.68,12.49,4.32,18.92,2.32,5.35,5.42,10.05,9.3,14.11,3.88,4.05,8.39,7.37,13.51,9.97,4.04,2.14,8.18,3.78,12.45,4.93,4.27,1.15,8.35,1.57,12.23,1.26Z"/>
  <path class="cls-1" d="m764.86,672.78c6.83.61,14.12-.46,21.88-3.21,4.97-1.84,9.43-4.32,13.39-7.45,3.96-3.14,7.1-7.15,9.42-12.05,1.4-2.9,2.17-5.88,2.33-8.94.16-3.06.16-6.11,0-9.17-.15-2.91-.85-5.66-2.1-8.26-1.24-2.6-2.87-4.96-4.88-7.11-2.01-2.15-4.26-3.98-6.74-5.52-2.49-1.53-5.05-2.75-7.68-3.67-4.5-1.37-8.93-2.63-13.28-3.78-4.34-1.15-8.76-2.33-13.25-3.55-2.8-.77-5.56-1.49-8.28-2.17-2.71-.69-5.38-1.65-8.02-2.88-2.95-1.68-3.27-3.89-.94-6.64.78-.92,1.79-1.64,3.03-2.17,1.24-.54,2.6-.92,4.08-1.15,1.47-.23,2.94-.38,4.41-.46,1.48-.08,2.76-.12,3.85-.12,1.86,0,3.77.2,5.71.58,1.94.38,3.76.95,5.46,1.72,1.71.76,3.15,1.83,4.31,3.21,1.16,1.37,1.98,3.13,2.45,5.28,0,.3.07.57.23.8.16.23.32.5.47.81,1.24,2.44,3.11,3.59,5.58,3.43,2.8-.3,5.59-.6,8.38-.91,2.8-.31,5.59-.69,8.38-1.15,1.7-.3,2.87-.87,3.49-1.71.63-.84,1.09-2.1,1.4-3.79.16-1.07.12-2.17-.11-3.31-.24-1.15-.51-2.34-.82-3.57-1.55-4.74-3.73-8.86-6.53-12.38-2.79-3.52-6.59-6.27-11.4-8.26-10.4-4.59-21.42-6.26-33.06-5.04-1.55.15-3.06.38-4.53.69-1.47.3-2.91.38-4.31.23-.94,0-1.75.19-2.45.57-.69.38-1.35.8-1.98,1.26-.62.46-1.28.85-1.98,1.15-.7.3-1.51.38-2.44.23-1.87-.46-3.31-.15-4.32.91-1.01,1.07-2.13,1.99-3.36,2.76-2.95,1.38-5.51,3.37-7.68,5.97-2.17,2.6-3.8,5.58-4.9,8.95-1.09,3.36-1.63,6.91-1.63,10.66s.7,7.38,2.1,10.9c2.64,6.27,6.75,11.16,12.34,14.68,4.04,2.14,8.3,3.82,12.8,5.05,4.5,1.22,8.93,2.67,13.28,4.35,1.08.31,2.13.42,3.14.34,1.01-.08,1.98.04,2.91.34,2.8.76,5.52,1.52,8.15,2.29,2.64.76,5.27,1.68,7.91,2.76,3.26,1.07,4.27,3.44,3.03,7.11-.62,1.99-2.02,3.44-4.19,4.36-2.02,1.07-4,1.8-5.95,2.17-1.94.38-3.99.57-6.16.57-2.64,0-5.24-.19-7.8-.57-2.56-.38-4.88-1.06-6.98-2.05-2.09-1-3.88-2.45-5.36-4.36-1.47-1.92-2.44-4.33-2.91-7.23-.31-2.61-1.28-4.22-2.91-4.83-1.63-.61-3.54-.91-5.71-.91-2.64,0-5.2.2-7.68.58-2.48.38-4.96.8-7.44,1.25-2.18.46-3.73,1.49-4.66,3.1-.93,1.61-1.16,3.48-.7,5.62.47,2.91,1.44,5.89,2.91,8.95,1.47,3.06,3.26,5.93,5.36,8.6,2.1,2.67,4.43,5.04,6.98,7.11,2.56,2.06,5.23,3.63,8.03,4.69,4.5,1.69,9,2.91,13.5,3.67,4.5.77,9.32,1,14.44.69Z"/>
  <path class="cls-1" d="m777.91,342.57c-.02.07.13.25.41.49,3.7.8,7.56,1.28,11.45,1.85"/>
  <path class="cls-1" d="m878.48,508.26c-1.33-4.95-3.79-9.51-6.93-13.66-5.18-6.85-11.9-11.63-20.07-14.5-2.08-.74-4.03-1.83-5.74-3.33-2.24-1.97-3.95-4.28-5.64-6.71-2.64-3.8-3.79-8.13-5.07-12.38-1.1-3.68-2.1-7.39-3.29-11.05-.95-2.91-2.21-5.72-3.31-8.57-1.8-4.64-3.94-9.11-6.09-13.59-1.69-3.52-3.79-6.81-5.7-10.21-3.06-5.47-6.45-10.74-9.9-15.96-2.74-4.13-5.71-8.11-8.59-12.15-7.73-10.85-11.06-14.03-13.49-16.32-2.26-2.13-4.26-3.75-5.66-4.83-5.12-1.44-10.54-2.82-16.23-4.09-5.1-1.14-10.03-2.1-14.77-2.91,7.72,4.64,13.34,8.06,14.5,8.8.23.15.81.52.77.98-.02.28-.38.5-.85.87-6.03,4.77-11.13,10.44-15.9,16.4-3.93,4.91-7.31,10.21-10.49,15.62-3.6,6.12-6.7,12.52-9.35,19.08-2.67,6.62-4.98,13.38-6.77,20.32-1.6,6.19-2.93,12.4-4.01,18.7-1.45,8.47-1.92,16.99-2.01,25.53-.03,3.57.55,7.14.65,10.72.16,5.96,1.59,11.72,2.92,17.46.84,3.61,2.18,7.12,3.55,10.6,2.19,5.54,5.1,10.66,8.42,15.58.24.34.44.52.88.25,2.19-1.36,4.5-2.57,6.58-4.06,4.37-3.14,8.6-6.44,12.47-10.2,4.78-4.64,9.07-9.66,12.97-15.01,2.64-3.64,5.08-7.41,7.26-11.34,2.6-4.69,5.06-9.46,7.04-14.41,2.19-5.46,4.18-10.99,5.59-16.72.99-4.03,2.04-8.02,2.79-12.12,1.25-6.92,1.86-13.89,2.32-20.88.5-7.73-.63-15.37-1.59-23-.44-3.5-1.25-6.96-2.18-10.41-1.33-4.94-2.83-9.8-4.78-14.53-1.24-3.02-2.64-5.99-3.97-8.98.42-.15.61.19.81.34,2.39,2.03,4.53,4.32,6.81,6.46,6.2,5.79,11.72,12.17,16.89,18.84,3.94,5.08,7.48,10.44,10.74,15.99,3.4,5.78,6.29,11.78,8.79,17.94,2.12,5.24,3.66,10.69,4.99,16.19,1.44,5.9,1.89,11.92,2.48,17.93.16,1.6-.16,3.42-1.03,4.88-1.62,2.74-4.23,4.59-6.95,6.1-3.07,1.69-6.05,3.46-8.69,5.74-4.4,3.79-8.03,8.15-10.64,13.39-2.46,4.94-3.98,10.09-4.38,15.51-.57,7.72.94,15.06,4.46,22.06,3.34,6.63,8.12,11.99,14.24,16.08,6.97,4.66,14.84,7.08,23.31,7.11,5.66.02,11.15-.93,16.51-3.02,5.79-2.26,10.81-5.55,15.01-9.93,5.28-5.52,8.74-12,10.67-19.5,1.85-7.19,1.48-14.16-.38-21.1Z"/>
</svg>